#VRML V2.0 utf8
Transform {
  translation 0 0 1.318898
  children [ Shape {
    appearance Appearance { material Material { diffuseColor 0.08 0.08 0.08 } }
    geometry Box { size 5.039370 2.716535 2.165354 }
  } ]
}
Transform {
  translation -1.750000 -1.750000 0.049213
  children [ Shape {
    appearance Appearance { material Material { diffuseColor 0.72 0.72 0.72 } }
    geometry Box { size 0.299213 0.649606 0.098425 }
  } ]
}
Transform {
  translation -1.250000 -1.750000 0.049213
  children [ Shape {
    appearance Appearance { material Material { diffuseColor 0.72 0.72 0.72 } }
    geometry Box { size 0.299213 0.649606 0.098425 }
  } ]
}
Transform {
  translation -0.750000 -1.750000 0.049213
  children [ Shape {
    appearance Appearance { material Material { diffuseColor 0.72 0.72 0.72 } }
    geometry Box { size 0.299213 0.649606 0.098425 }
  } ]
}
Transform {
  translation -0.250000 -1.750000 0.049213
  children [ Shape {
    appearance Appearance { material Material { diffuseColor 0.72 0.72 0.72 } }
    geometry Box { size 0.299213 0.649606 0.098425 }
  } ]
}
Transform {
  translation 0.250000 -1.750000 0.049213
  children [ Shape {
    appearance Appearance { material Material { diffuseColor 0.72 0.72 0.72 } }
    geometry Box { size 0.299213 0.649606 0.098425 }
  } ]
}
Transform {
  translation 0.750000 -1.750000 0.049213
  children [ Shape {
    appearance Appearance { material Material { diffuseColor 0.72 0.72 0.72 } }
    geometry Box { size 0.299213 0.649606 0.098425 }
  } ]
}
Transform {
  translation 1.250000 -1.750000 0.049213
  children [ Shape {
    appearance Appearance { material Material { diffuseColor 0.72 0.72 0.72 } }
    geometry Box { size 0.299213 0.649606 0.098425 }
  } ]
}
Transform {
  translation 1.750000 -1.750000 0.049213
  children [ Shape {
    appearance Appearance { material Material { diffuseColor 0.72 0.72 0.72 } }
    geometry Box { size 0.299213 0.649606 0.098425 }
  } ]
}
Transform {
  translation -1.750000 1.750000 0.049213
  children [ Shape {
    appearance Appearance { material Material { diffuseColor 0.72 0.72 0.72 } }
    geometry Box { size 0.299213 0.649606 0.098425 }
  } ]
}
Transform {
  translation -1.250000 1.750000 0.049213
  children [ Shape {
    appearance Appearance { material Material { diffuseColor 0.72 0.72 0.72 } }
    geometry Box { size 0.299213 0.649606 0.098425 }
  } ]
}
Transform {
  translation -0.750000 1.750000 0.049213
  children [ Shape {
    appearance Appearance { material Material { diffuseColor 0.72 0.72 0.72 } }
    geometry Box { size 0.299213 0.649606 0.098425 }
  } ]
}
Transform {
  translation -0.250000 1.750000 0.049213
  children [ Shape {
    appearance Appearance { material Material { diffuseColor 0.72 0.72 0.72 } }
    geometry Box { size 0.299213 0.649606 0.098425 }
  } ]
}
Transform {
  translation 0.250000 1.750000 0.049213
  children [ Shape {
    appearance Appearance { material Material { diffuseColor 0.72 0.72 0.72 } }
    geometry Box { size 0.299213 0.649606 0.098425 }
  } ]
}
Transform {
  translation 0.750000 1.750000 0.049213
  children [ Shape {
    appearance Appearance { material Material { diffuseColor 0.72 0.72 0.72 } }
    geometry Box { size 0.299213 0.649606 0.098425 }
  } ]
}
Transform {
  translation 1.250000 1.750000 0.049213
  children [ Shape {
    appearance Appearance { material Material { diffuseColor 0.72 0.72 0.72 } }
    geometry Box { size 0.299213 0.649606 0.098425 }
  } ]
}
Transform {
  translation 1.750000 1.750000 0.049213
  children [ Shape {
    appearance Appearance { material Material { diffuseColor 0.72 0.72 0.72 } }
    geometry Box { size 0.299213 0.649606 0.098425 }
  } ]
}
Transform {
  translation -2.027559 0.866142 2.409449
  children [ Shape {
    appearance Appearance { material Material { diffuseColor 0.85 0.85 0.85 } }
    geometry Cylinder { radius 0.125984 height 0.015748 }
  } ]
}
